<svg xmlns="http://www.w3.org/2000/svg" viewBox="0 0 800 500">
  <defs>
    <linearGradient id="g" x1="0" y1="0" x2="1" y2="1">
      <stop offset="0" stop-color="#2e7d5b"/>
      <stop offset="1" stop-color="#07160f"/>
    </linearGradient>
  </defs>
  <rect width="800" height="500" fill="url(#g)"/>
  <g stroke="#ffffff" stroke-opacity="0.08" stroke-width="1">
    <path d="M0 50h800"/><path d="M0 100h800"/><path d="M0 150h800"/><path d="M0 200h800"/><path d="M0 250h800"/><path d="M0 300h800"/><path d="M0 350h800"/><path d="M0 400h800"/><path d="M0 450h800"/>
    <path d="M50 0v500"/><path d="M100 0v500"/><path d="M150 0v500"/><path d="M200 0v500"/><path d="M250 0v500"/><path d="M300 0v500"/><path d="M350 0v500"/><path d="M400 0v500"/><path d="M450 0v500"/><path d="M500 0v500"/><path d="M550 0v500"/><path d="M600 0v500"/><path d="M650 0v500"/><path d="M700 0v500"/><path d="M750 0v500"/>
  </g>
  <circle cx="640" cy="120" r="70" fill="none" stroke="#f0bf5c" stroke-opacity="0.5" stroke-width="2" stroke-dasharray="5 7"/>
  <text x="400" y="230" font-size="120" text-anchor="middle" dominant-baseline="middle">🗺️</text>
  <text x="400" y="330" font-family="Georgia, serif" font-size="34" fill="#f0bf5c" text-anchor="middle" letter-spacing="3">Grand Line Maps</text>
  <text x="400" y="380" font-family="Arial, sans-serif" font-size="18" fill="#ffffff" fill-opacity="0.6" text-anchor="middle">Replace with a real screenshot</text>
</svg>